<svg class="img-fluid" id="outputsvg" xmlns="http://www.w3.org/2000/svg"   width="222" height="74" viewBox="0 0 17550 5620">
    <g id="l14QhAujI9gz5X4Gs7By7Gi" fill="rgb(27,88,158)" ><g><path id="puAGTBEBm" d="M1850 4314 c0 -4 7 -12 15 -18 13 -10 8 -20 -36 -71 -82 -96 -225 -319 -294 -460 -150 -306 -220 -596 -232 -960 -17 -536 162 -1059 514 -1503 340 -429 866 -731 1428 -822 39 -6 95 -15 126 -20 72 -13 406 -13 478 0 31 5 88 14 126 20 176 29 264 52 430 115 191 72 307 131 510 260 150 96 350 281 491 455 176 216 341 532 414 790 7 25 16 56 21 70 34 100 79 446 79 609 0 153 -37 414 -82 576 -31 113 -87 263 -140 375 -51 108 -57 126 -43 136 8 6 15 14 15 17 0 3 -291 8 -647 11 -638 6 -865 13 -1073 34 -490 50 -667 74 -840 111 -79 17 -203 41 -260 51 -70 12 -261 47 -320 59 -25 6 -64 17 -87 25 -24 8 -73 22 -110 31 -74 17 -166 43 -198 56 -11 4 -31 10 -45 12 -14 3 -59 14 -100 26 -74 20 -140 27 -140 15z m1516 -662 c28 -13 69 -42 92 -65 67 -69 72 -93 72 -386 0 -249 -1 -257 -24 -308 -17 -36 -41 -65 -80 -95 -31 -24 -238 -158 -461 -297 -405 -253 -405 -253 -405 -512 0 -259 0 -259 395 -259 395 0 395 0 397 163 3 162 3 162 76 165 72 3 72 3 72 -233 0 -235 0 -235 -417 -232 -423 4 -523 11 -579 40 -50 26 -91 80 -103 137 -14 66 -14 443 0 494 20 72 93 126 539 400 420 258 420 258 420 567 0 309 0 309 -412 307 -413 -3 -413 -3 -418 -163 -5 -160 -5 -160 -70 -160 -65 0 -65 0 -68 227 -2 227 -2 227 20 231 13 3 221 4 463 3 437 -1 440 -1 491 -24z m928 -37 c56 -23 121 -89 147 -148 24 -52 24 -52 27 -949 2 -898 2 -898 86 -898 105 0 118 -11 114 -96 -3 -59 -3 -59 -288 -59 -285 0 -285 0 -288 66 -3 78 -2 79 111 79 67 0 67 0 67 939 0 847 -2 939 -16 945 -9 3 -123 6 -255 6 -239 0 -239 0 -239 65 0 65 0 65 249 65 201 0 256 -3 285 -15z"></path><path id="p3ljhFlH4" d="M6080 2349 c0 -130 0 -130 48 -127 47 3 47 3 50 86 3 82 3 82 195 80 192 -3 192 -3 192 -142 0 -139 0 -139 -210 -268 -115 -71 -223 -143 -240 -159 -30 -29 -30 -29 -30 -177 0 -178 6 -192 89 -216 45 -13 97 -16 268 -14 213 3 213 3 216 131 3 128 3 128 -45 125 -48 -3 -48 -3 -53 -78 -5 -75 -5 -75 -185 -75 -180 0 -180 0 -180 115 0 115 0 115 207 245 114 71 218 141 232 154 41 39 49 80 44 227 -5 146 -13 169 -71 204 -29 18 -52 20 -279 20 -248 0 -248 0 -248 -131z"></path><path id="pYlUr6CCN" d="M6862 2438 c3 -41 5 -43 38 -46 19 -2 38 -9 42 -15 4 -7 8 -199 8 -427 0 -228 -4 -420 -8 -427 -4 -6 -23 -13 -42 -15 -34 -3 -35 -4 -35 -48 0 -45 0 -45 134 -45 135 0 135 0 142 27 12 47 1 67 -40 70 -36 3 -36 3 -36 188 0 185 0 185 185 188 165 2 186 1 197 -15 14 -19 19 -329 5 -350 -4 -6 -23 -13 -42 -15 -33 -3 -35 -5 -38 -42 -2 -24 2 -42 10 -47 17 -11 249 -11 266 0 8 5 12 23 10 47 -3 37 -5 39 -43 44 -40 5 -40 5 -43 442 -2 437 -2 437 40 440 43 3 43 3 46 46 3 42 3 42 -143 42 -146 0 -146 0 -143 -42 3 -42 4 -43 40 -46 33 -3 38 -7 43 -35 3 -18 5 -108 3 -202 -3 -170 -3 -170 -200 -173 -198 -2 -198 -2 -198 203 0 205 0 205 39 205 36 0 39 2 44 33 8 57 7 57 -145 57 -139 0 -139 0 -136 -42z"></path><path id="p19EAnNwCw" d="M7852 2438 c3 -41 5 -43 38 -46 19 -2 38 -9 42 -15 4 -7 8 -199 8 -427 0 -228 -4 -420 -8 -427 -4 -6 -23 -13 -42 -15 -34 -3 -35 -4 -35 -48 0 -45 0 -45 265 -45 389 0 385 -2 385 217 0 164 -1 166 -123 248 -45 30 -84 57 -86 60 -3 3 57 105 133 225 91 145 145 221 157 223 62 9 64 11 64 52 0 40 0 40 -141 40 -140 0 -140 0 -137 -42 3 -40 5 -43 36 -46 17 -2 32 -7 32 -11 0 -7 -182 -305 -221 -362 -16 -24 -16 -24 -51 -5 -19 10 -52 31 -74 45 -39 27 -39 27 -39 176 0 150 0 150 40 155 39 5 40 6 43 48 3 42 3 42 -143 42 -146 0 -146 0 -143 -42z m383 -616 c140 -88 140 -88 143 -180 3 -93 3 -93 -145 -90 -148 3 -148 3 -151 181 -1 97 1 177 5 177 5 0 71 -40 148 -88z"></path><path id="pldUA0lzD" d="M8770 2435 c0 -45 0 -45 39 -45 26 0 41 -5 45 -16 9 -23 7 -837 -2 -851 -4 -6 -23 -13 -42 -15 -34 -3 -35 -4 -35 -48 0 -45 0 -45 314 -48 223 -2 318 1 327 9 10 9 14 42 14 130 0 119 0 119 -45 119 -44 0 -44 0 -47 -77 -3 -78 -3 -78 -183 -78 -180 0 -180 0 -180 185 0 185 0 185 90 188 103 3 115 -4 115 -71 0 -38 0 -38 38 -35 37 3 37 3 37 148 0 145 0 145 -35 145 -34 0 -35 -1 -40 -45 -5 -45 -5 -45 -108 -48 -102 -3 -102 -3 -100 200 3 203 3 203 183 203 180 0 180 0 183 -83 3 -83 3 -83 45 -80 42 3 42 3 45 131 3 127 3 127 -328 127 -330 0 -330 0 -330 -45z"></path><path id="pVAgolGvn" d="M9602 2438 c3 -42 4 -43 40 -46 29 -2 39 -8 43 -25 3 -12 4 -209 3 -437 -3 -415 -3 -415 -43 -420 -40 -5 -40 -5 -40 -50 0 -45 0 -45 314 -48 223 -2 318 1 327 9 10 9 14 42 14 130 0 119 0 119 -45 119 -44 0 -44 0 -47 -77 -3 -78 -3 -78 -183 -78 -180 0 -180 0 -180 185 0 185 0 185 94 188 107 3 111 1 111 -66 0 -43 0 -43 43 -40 42 3 42 3 45 137 3 148 -2 164 -52 159 -29 -3 -31 -6 -36 -48 -5 -45 -5 -45 -108 -48 -102 -3 -102 -3 -100 200 3 203 3 203 183 203 180 0 180 0 183 -83 3 -83 3 -83 45 -80 42 3 42 3 45 131 3 127 3 127 -328 127 -331 0 -331 0 -328 -42z"></path><path id="pcnU1X8cq" d="M10862 2438 c3 -43 3 -43 123 -48 120 -5 120 -5 120 -440 0 -435 0 -435 -40 -440 -39 -5 -40 -6 -43 -47 -4 -53 1 -55 163 -51 120 3 120 3 120 48 0 45 0 45 -40 50 -40 5 -40 5 -45 440 -6 483 -3 468 -73 510 -27 17 -51 20 -160 20 -128 0 -128 0 -125 -42z"></path>
        <path id="pmzmbi2a9" d="M11452 2438 c3 -42 4 -43 41 -46 28 -2 40 -9 47 -25 5 -12 35 -121 65 -242 136 -536 178 -691 187 -702 12 -14 125 -18 146 -5 6 5 64 215 127 468 63 252 119 469 125 481 6 16 19 23 47 25 37 3 38 4 41 46 3 42 3 42 -133 42 -136 0 -136 0 -133 -42 3 -40 5 -43 36 -46 40 -4 40 -10 7 -145 -40 -162 -21 -147 -189 -147 -80 0 -147 4 -151 9 -8 14 -65 241 -65 262 0 13 9 19 33 21 30 3 32 6 35 46 3 42 3 42 -133 42 -136 0 -136 0 -133 -42z m498 -453 c0 -11 -80 -318 -83 -322 -3 -2 -21 63 -41 144 -20 81 -39 156 -42 166 -5 15 3 17 80 17 47 0 86 -2 86 -5z"></path><path id="p15wOquFs3" d="M12480 2462 c-22 -10 -43 -32 -55 -57 -19 -38 -20 -60 -20 -455 0 -395 1 -417 20 -455 36 -71 66 -79 314 -83 118 -2 224 -1 237 2 24 6 24 8 24 131 0 125 0 125 -50 125 -50 0 -50 0 -50 -63 0 -100 4 -98 -200 -95 -175 3 -175 3 -178 441 -2 437 -2 437 183 437 141 0 185 -3 186 -12 5 -43 7 -249 3 -280 -6 -43 -7 -43 -110 19 -39 24 -74 43 -78 43 -3 0 -6 -20 -6 -44 0 -45 0 -45 132 -127 73 -45 140 -84 150 -87 17 -4 18 12 18 287 0 291 0 291 -242 291 -211 0 -248 -2 -278 -18z"></path><path id="psIOEXgHf" d="M13182 2438 c3 -42 4 -43 43 -48 40 -5 40 -5 40 -440 0 -435 0 -435 -40 -440 -40 -5 -40 -5 -40 -50 0 -45 0 -45 240 -48 257 -3 336 5 382 41 52 41 53 54 53 497 0 392 -1 413 -20 450 -13 26 -34 47 -60 60 -37 19 -58 20 -320 20 -281 0 -281 0 -278 -42z m538 -483 c0 -405 0 -405 -143 -405 -98 0 -147 4 -155 12 -9 9 -12 111 -12 398 0 213 3 390 7 393 3 4 73 7 155 7 148 0 148 0 148 -405z"></path><path id="pUK8ke1N6" d="M13992 2438 c3 -42 4 -43 42 -48 47 -6 40 11 122 -310 138 -546 167 -655 178 -662 6 -4 38 -8 71 -8 33 0 65 4 71 8 7 4 64 216 128 472 64 256 120 472 125 480 4 8 26 17 47 20 38 5 39 6 42 48 3 42 3 42 -133 42 -136 0 -136 0 -133 -42 3 -40 5 -43 36 -46 40 -4 40 -9 -1 -167 -32 -120 -32 -120 -180 -123 -171 -3 -151 -18 -192 140 -34 133 -33 146 8 150 30 3 32 6 35 46 3 42 3 42 -133 42 -136 0 -136 0 -133 -42z m496 -460 c-3 -7 -22 -82 -43 -166 -21 -83 -40 -150 -43 -148 -4 5 -81 304 -82 319 0 4 39 7 86 7 65 0 85 -3 82 -12z"></path><path id="pEz3gKgz9" d="M14962 2438 c3 -42 4 -43 40 -46 29 -2 39 -8 43 -25 3 -12 4 -209 3 -437 -3 -415 -3 -415 -43 -420 -40 -5 -40 -5 -40 -50 0 -45 0 -45 96 -48 81 -2 97 0 110 15 9 10 78 147 154 306 77 158 145 287 152 287 7 0 21 -19 32 -42 11 -24 71 -150 135 -282 64 -131 116 -242 116 -246 0 -4 8 -15 19 -24 15 -14 35 -16 112 -14 94 3 94 3 94 48 0 45 0 45 -40 50 -40 5 -40 5 -43 442 -2 437 -2 437 40 440 43 3 43 3 46 46 3 42 3 42 -143 42 -146 0 -146 0 -143 -42 3 -42 4 -43 43 -48 40 -5 40 -5 43 -349 1 -190 -2 -349 -6 -353 -5 -5 -66 109 -136 252 -127 260 -127 260 -172 260 -45 0 -45 0 -98 -112 -152 -320 -196 -408 -206 -408 -7 0 -9 110 -8 353 3 352 3 352 43 357 39 5 40 6 43 48 3 42 3 42 -143 42 -146 0 -146 0 -143 -42z"></path></g></g><g id="l4V1rEDWMqmt9tq5krj0bFT" fill="rgb(44,166,79)" style="transform: none;"><g><path id="pQwhlacUt" d="M3340 5050 c-25 -5 -81 -13 -125 -20 -44 -6 -93 -15 -110 -20 -16 -5 -75 -20 -130 -35 -254 -68 -561 -224 -781 -396 -67 -53 -67 -53 -38 -65 25 -10 175 -37 414 -75 228 -36 394 -57 685 -89 55 -6 118 -13 140 -16 48 -6 242 -21 460 -33 296 -18 1455 -8 1455 12 0 32 -262 257 -420 362 -202 133 -318 190 -525 261 -273 94 -466 124 -775 123 -113 -1 -225 -5 -250 -9z"></path><path id="pMY8bmLUs" d="M597 4842 c18 -16 59 -39 90 -52 32 -13 96 -44 143 -69 127 -69 461 -219 575 -258 55 -19 165 -59 245 -89 80 -29 190 -67 245 -84 55 -17 114 -35 131 -40 17 -6 38 -10 47 -10 10 0 25 -4 35 -9 22 -11 107 -36 195 -56 37 -9 86 -23 110 -31 23 -8 62 -19 87 -25 59 -12 250 -47 320 -59 57 -10 181 -34 260 -51 156 -34 318 -56 680 -93 80 -8 170 -18 200 -21 245 -28 1471 -45 1750 -25 164 11 537 45 680 60 41 5 100 11 130 15 30 3 84 10 120 15 36 5 103 14 150 21 47 6 139 21 205 35 66 13 145 29 175 35 198 39 213 43 375 83 77 19 167 41 200 50 173 42 520 165 562 198 20 16 5 28 -32 28 -19 0 -56 4 -82 9 -26 5 -75 14 -108 20 -140 25 -236 44 -329 63 -114 23 -101 24 -306 -30 -152 -39 -422 -99 -550 -122 -36 -6 -87 -15 -115 -20 -164 -29 -412 -59 -925 -110 -491 -49 -1573 -76 -1960 -50 -80 6 -208 15 -285 20 -144 10 -279 22 -420 39 -209 25 -415 52 -465 61 -30 5 -89 14 -130 20 -172 25 -381 61 -470 82 -99 22 -543 133 -595 148 -315 89 -470 141 -723 241 -123 49 -228 89 -235 89 -7 -1 3 -13 20 -28z"></path><path id="p6suMV7kM" d="M7740 3507 c0 -16 9 -28 25 -35 25 -12 25 -12 25 -246 0 -227 -1 -235 -20 -241 -11 -4 -34 -4 -50 0 -27 6 -30 11 -30 45 0 39 -16 55 -45 43 -13 -4 -15 -20 -13 -77 3 -71 3 -71 193 -71 190 0 190 0 193 71 2 57 0 73 -13 77 -29 12 -45 -4 -45 -44 0 -33 -4 -40 -25 -45 -14 -3 -36 -3 -50 0 -25 6 -25 6 -25 241 0 235 0 235 25 245 18 7 25 17 25 35 0 25 -1 25 -85 25 -82 0 -85 -1 -85 -23z"></path><path id="pcIawAe5n" d="M8090 3505 c0 -18 7 -28 25 -35 25 -10 25 -10 25 -245 0 -235 0 -235 -25 -241 -19 -5 -25 -13 -25 -35 0 -29 0 -29 155 -29 213 0 225 7 225 132 0 76 -14 103 -72 138 -26 16 -48 33 -48 37 0 5 33 60 73 123 45 71 81 116 93 119 22 4 34 19 34 44 0 15 -10 17 -80 17 -75 0 -80 -1 -80 -22 0 -12 6 -29 14 -37 12 -14 7 -28 -43 -106 -31 -49 -65 -91 -74 -93 -9 -2 -30 6 -47 18 -29 20 -30 24 -30 96 0 70 1 75 25 84 18 7 25 17 25 35 0 25 -1 25 -85 25 -84 0 -85 0 -85 -25z m278 -413 c21 -27 15 -69 -10 -76 -38 -10 -93 -7 -106 6 -7 7 -12 41 -12 81 0 68 0 68 58 36 31 -17 63 -39 70 -47z"></path><path id="pH39r1Wid" d="M8587 3518 c-6 -18 11 -48 28 -48 7 0 16 -4 19 -9 3 -4 35 -124 71 -266 36 -142 68 -262 71 -267 3 -4 25 -8 48 -8 37 0 45 4 50 23 9 33 95 371 115 452 15 58 21 71 39 73 24 4 47 36 37 52 -3 6 -42 10 -86 10 -77 0 -79 -1 -79 -24 0 -16 7 -27 20 -31 24 -8 24 -9 4 -90 -16 -65 -16 -65 -99 -65 -92 0 -86 -5 -110 85 -13 47 -13 51 5 64 11 7 20 24 20 37 0 23 -3 24 -74 24 -50 0 -76 -4 -79 -12z m252 -315 c-5 -21 -9 -42 -9 -47 0 -23 -19 12 -25 47 -7 35 -6 37 18 37 24 0 24 -2 16 -37z"></path><path id="p1AOZBINd5" d="M9161 3493 c-97 -370 -134 -498 -144 -505 -6 -4 -18 -8 -25 -8 -9 0 -12 -10 -10 -27 3 -28 4 -28 73 -28 68 0 70 1 73 27 2 20 -2 28 -18 33 -13 4 -19 12 -16 21 5 14 61 222 92 349 24 93 23 91 38 74 7 -8 18 -32 23 -54 6 -22 25 -94 43 -160 47 -174 59 -220 57 -220 -17 0 -42 -28 -42 -46 0 -23 3 -24 75 -24 74 0 75 0 78 28 2 17 -1 27 -10 27 -29 0 -39 21 -69 136 -17 65 -43 164 -58 219 -16 55 -34 121 -41 148 -13 47 -13 47 -61 47 -47 0 -48 -1 -58 -37z"></path><path id="p2luBa9eX" d="M9530 3505 c0 -18 7 -26 25 -31 25 -6 25 -6 25 -245 0 -239 0 -239 -26 -245 -20 -5 -24 -12 -22 -33 3 -26 3 -26 193 -26 190 0 190 0 193 72 3 73 3 73 -28 73 -28 0 -30 -2 -30 -40 0 -36 -2 -40 -32 -45 -18 -3 -62 -5 -98 -3 -65 3 -65 3 -68 106 -3 102 -3 102 37 102 52 0 71 -8 71 -31 0 -14 7 -19 25 -19 26 0 26 0 23 83 -3 74 -5 82 -23 82 -12 0 -21 -9 -25 -25 -5 -22 -12 -25 -58 -28 -52 -3 -52 -3 -52 108 0 111 0 111 98 108 97 -3 97 -3 100 -46 3 -40 5 -43 30 -40 26 3 27 5 30 76 3 72 3 72 -193 72 -195 0 -195 0 -195 -25z"></path><path id="pkxNMyKgi" d="M10005 3520 c-9 -14 13 -50 30 -50 13 0 15 -36 15 -238 0 -236 0 -237 -22 -247 -15 -7 -23 -19 -23 -35 0 -25 1 -25 85 -25 85 0 85 0 88 27 3 22 -2 27 -28 33 -30 7 -30 7 -28 243 3 237 3 237 85 240 82 3 82 3 85 -40 2 -35 7 -44 25 -46 18 -3 23 3 28 30 4 19 5 52 3 73 -3 40 -3 40 -170 43 -104 1 -169 -1 -173 -8z"></path><path id="pPqGXr0qi" d="M10392 3458 c3 -70 4 -73 28 -73 22 0 26 5 30 40 5 40 5 40 110 40 105 0 105 0 105 -74 0 -74 0 -74 -120 -147 -67 -41 -128 -86 -137 -101 -20 -32 -24 -123 -7 -171 15 -45 47 -53 194 -50 130 3 130 3 133 75 3 73 3 73 -28 73 -28 0 -30 -2 -30 -39 0 -47 -8 -51 -105 -51 -103 0 -105 1 -105 70 0 58 0 58 130 141 150 97 155 105 148 225 -8 114 -8 114 -195 114 -154 0 -154 0 -151 -72z"></path><path id="pkQ0pi3CO" d="M11090 3505 c0 -18 7 -26 25 -31 13 -3 27 -13 29 -22 3 -10 33 -125 67 -257 33 -132 65 -248 71 -258 7 -14 19 -17 51 -15 42 3 42 3 108 264 36 144 69 266 73 273 4 6 15 11 26 11 18 0 30 18 30 46 0 11 -18 14 -80 14 -78 0 -80 -1 -80 -25 0 -14 8 -29 20 -35 10 -6 17 -16 15 -23 -2 -6 -11 -38 -20 -69 -16 -58 -16 -58 -99 -58 -84 0 -84 0 -101 71 -17 70 -17 70 4 85 11 8 21 24 21 35 0 17 -7 19 -80 19 -79 0 -80 0 -80 -25z m254 -302 c-6 -36 -24 -69 -24 -47 0 5 -4 26 -9 47 -8 35 -8 37 16 37 22 0 23 -3 17 -37z"></path><path id="pDitlEliH" d="M11634 3515 c-8 -19 3 -34 32 -45 24 -10 24 -10 24 -243 0 -233 0 -233 -31 -244 -24 -9 -30 -17 -27 -35 3 -21 9 -23 66 -26 63 -3 63 -3 172 223 60 124 114 225 119 225 7 0 11 -63 11 -189 0 -189 0 -189 -24 -195 -26 -6 -39 -28 -30 -51 5 -12 24 -15 85 -15 79 0 79 0 79 28 0 20 -7 32 -21 38 -21 9 -21 16 -22 274 -2 265 -2 265 -43 268 -40 3 -40 3 -108 -135 -37 -76 -84 -173 -103 -215 -20 -43 -40 -78 -44 -78 -5 0 -9 83 -9 185 0 175 1 185 19 185 19 0 31 18 31 46 0 21 -168 20 -176 -1z"></path><path id="pCXZnTQ3b" d="M12215 3520 c-9 -14 13 -50 30 -50 13 0 15 -36 15 -238 0 -236 0 -237 -22 -247 -15 -7 -23 -19 -23 -35 0 -25 0 -25 150 -28 124 -2 157 0 188 14 54 25 59 51 55 317 -4 295 11 277 -223 277 -96 0 -166 -4 -170 -10z m293 -293 c2 -208 2 -208 -70 -205 -73 3 -73 3 -76 211 -2 208 -2 208 70 205 73 -3 73 -3 76 -211z"></path>
            <path id="pGFUB89hR" d="M13010 3510 c-19 -19 -20 -33 -20 -280 0 -331 -12 -313 205 -308 120 3 120 3 123 76 3 71 3 72 -23 72 -22 0 -25 -4 -25 -39 0 -46 -10 -51 -113 -51 -113 0 -107 -15 -107 243 0 122 4 228 8 235 6 9 35 12 108 10 99 -3 99 -3 102 -46 3 -38 6 -43 25 -40 20 3 22 10 25 76 3 72 3 72 -143 72 -132 0 -147 -2 -165 -20z"></path><path id="pO8aTSZMW" d="M13385 3521 c-10 -17 14 -51 35 -51 11 0 20 -2 20 -5 0 -8 120 -479 131 -512 9 -29 15 -33 47 -33 20 0 42 4 48 8 6 4 37 113 69 242 80 322 72 298 98 302 16 2 23 11 25 31 3 28 3 28 -74 25 -85 -3 -98 -14 -64 -48 22 -22 22 -37 -2 -122 -11 -38 -11 -38 -94 -38 -83 0 -83 0 -98 54 -21 70 -20 82 5 107 11 11 18 26 16 32 -5 15 -153 22 -162 8z m259 -308 c-16 -67 -21 -70 -33 -28 -15 54 -15 55 14 55 23 0 25 -3 19 -27z"></path><path id="pSqeB87X8" d="M13932 3508 c2 -13 15 -29 31 -36 27 -13 27 -13 27 -243 0 -231 0 -231 -30 -242 -25 -9 -30 -17 -28 -37 3 -25 3 -25 170 -25 160 0 168 1 190 22 18 18 23 36 26 90 4 83 -8 108 -70 148 -26 17 -47 36 -47 43 -1 7 31 64 71 127 49 77 79 115 93 117 13 2 21 12 23 31 3 27 3 27 -77 27 -73 0 -81 -2 -81 -19 0 -11 7 -26 15 -35 8 -8 15 -17 15 -19 0 -6 -98 -166 -112 -184 -8 -10 -19 -8 -49 9 -39 22 -39 22 -39 105 0 66 3 83 15 83 17 0 39 36 30 50 -3 6 -44 10 -91 10 -83 0 -85 -1 -82 -22z m271 -406 c9 -9 17 -29 17 -47 0 -35 -16 -45 -75 -45 -46 0 -55 16 -55 92 0 69 0 69 48 42 26 -15 55 -34 65 -42z"></path><path id="pVmViKeOS" d="M14474 3509 c-17 -19 -19 -41 -22 -253 -2 -127 0 -246 3 -264 4 -23 16 -39 38 -53 28 -17 48 -19 167 -17 135 3 135 3 138 76 3 72 3 72 -33 72 -34 0 -35 -1 -35 -39 0 -45 -11 -51 -105 -51 -115 0 -106 -22 -103 249 3 236 3 236 103 236 100 0 100 0 103 -82 2 -46 0 -83 -4 -83 -4 0 -27 11 -51 26 -43 25 -63 25 -63 0 0 -7 10 -21 23 -32 39 -35 147 -95 157 -89 6 4 10 70 10 166 0 159 0 159 -153 159 -144 0 -155 -1 -173 -21z"></path><path id="pfOhqlCEZ" d="M14919 3504 c-24 -25 -24 -27 -27 -261 -3 -258 1 -284 49 -308 37 -20 197 -20 243 -1 51 21 56 50 56 296 0 224 -7 272 -40 290 -10 6 -72 10 -138 10 -114 0 -119 -1 -143 -26z m221 -274 c0 -210 0 -210 -75 -210 -75 0 -75 0 -75 210 0 210 0 210 75 210 75 0 75 0 75 -210z"></path></g></g><g id="l4Q8xgMSJSrQ476nWSBxP13" fill="rgb(250,252,253)" style="transform: none;"><g><path id="pqTfBEKOz" d="M2382 3703 c-22 -4 -22 -4 -20 -261 3 -257 3 -257 98 -257 95 0 95 0 100 160 5 160 5 160 388 163 382 2 382 2 382 -277 0 -279 0 -279 -420 -537 -446 -274 -519 -328 -539 -400 -14 -52 -14 -487 0 -554 12 -57 53 -111 103 -137 57 -29 157 -36 609 -40 447 -3 447 -3 447 262 0 266 0 266 -102 263 -103 -3 -103 -3 -106 -165 -2 -163 -2 -163 -367 -163 -365 0 -365 0 -365 229 0 229 0 229 405 482 223 139 430 273 461 297 39 30 63 59 80 95 23 51 24 57 24 338 0 326 -4 346 -72 416 -23 23 -64 52 -92 65 -51 23 -53 23 -521 24 -259 1 -480 0 -493 -3z"></path><path id="p1CQN2gyx6" d="M3730 3565 c0 -95 0 -95 239 -95 132 0 246 -3 255 -6 14 -6 16 -95 16 -915 0 -909 0 -909 -67 -909 -118 0 -114 3 -111 -109 3 -96 3 -96 318 -96 315 0 315 0 318 89 4 119 -2 126 -114 126 -84 0 -84 0 -86 898 -3 897 -3 897 -27 949 -13 29 -43 70 -66 92 -76 70 -83 71 -396 71 -279 0 -279 0 -279 -95z"></path><path id="p9j4VxrXK" d="M12332 3233 c3 -238 3 -238 106 -241 102 -3 102 -3 100 235 -3 238 -3 238 -106 241 -102 3 -102 3 -100 -235z"></path><path id="pAERBBJ0o" d="M14960 3230 c0 -240 0 -240 105 -240 105 0 105 0 105 240 0 240 0 240 -105 240 -105 0 -105 0 -105 -240z"></path><path id="pmmDoOgN7" d="M8760 3249 c0 -36 22 -113 38 -131 27 -31 50 -22 63 25 6 23 15 55 20 71 17 54 14 56 -56 56 -59 0 -65 -2 -65 -21z"></path><path id="prEac9ryg" d="M11260 3260 c0 -14 40 -161 46 -172 3 -4 14 -8 24 -8 14 0 22 11 31 43 6 23 15 55 20 71 5 16 9 40 9 52 0 23 -3 24 -65 24 -37 0 -65 -4 -65 -10z"></path><path id="pX4VGj0CV" d="M13564 3231 c3 -22 12 -57 18 -78 11 -32 18 -38 43 -41 30 -3 31 -1 48 65 9 37 17 74 17 81 0 8 -20 12 -66 12 -67 0 -67 0 -60 -39z"></path><path id="p4CdTY891" d="M8217 3223 c-13 -12 -8 -218 5 -231 13 -13 126 -16 166 -6 19 6 22 13 22 63 0 31 -4 61 -8 68 -6 9 -168 113 -177 113 -1 0 -5 -3 -8 -7z"></path><path id="pFuKq07uf" d="M14060 3117 c0 -75 4 -117 12 -125 12 -12 116 -16 156 -6 20 6 22 12 22 69 0 47 -4 66 -17 77 -21 17 -159 98 -167 98 -3 0 -6 -51 -6 -113z"></path><path id="p11ORUNcTT" d="M9424 2355 c0 -71 1 -99 3 -62 2 37 2 96 0 130 -2 34 -3 4 -3 -68z"></path><path id="pS7R1pDHJ" d="M10861 2443 c-1 -23 3 -44 7 -47 4 -2 6 12 4 32 -5 56 -10 62 -11 15z"></path><path id="pX2RmLXds" d="M13387 2383 c-4 -3 -7 -194 -7 -423 0 -310 3 -419 12 -428 8 -8 64 -12 185 -12 173 0 173 0 173 435 0 435 0 435 -178 435 -98 0 -182 -3 -185 -7z"></path><path id="phCoMep5S" d="M7565 1950 c0 -234 1 -329 2 -213 2 117 2 309 0 425 -1 117 -2 22 -2 -212z"></path><path id="pb6OtC1Kp" d="M12515 1950 c0 -234 1 -329 2 -213 2 117 2 309 0 425 -1 117 -2 22 -2 -212z"></path><path id="p1E0SVklP6" d="M11740 2010 c0 -26 92 -376 102 -388 6 -7 21 -12 32 -10 18 3 27 26 69 193 26 104 45 195 43 202 -7 17 -246 19 -246 3z"></path><path id="pH3Wveb5P" d="M14280 2005 c0 -29 91 -379 102 -392 9 -11 48 -19 48 -10 0 1 23 91 50 200 28 109 48 203 45 208 -4 5 -60 9 -126 9 -100 0 -119 -2 -119 -15z"></path><path id="phXzcM17p" d="M8052 1743 c3 -218 3 -218 181 -221 178 -2 178 -2 175 120 -3 123 -3 123 -158 220 -85 53 -165 97 -178 97 -22 1 -22 1 -20 -216z"></path><path id="pMyNKk5dC" d="M6563 1595 c0 -38 2 -53 4 -32 2 20 2 52 0 70 -2 17 -4 1 -4 -38z"></path><path id="p1kFSdxir" d="M15774 1433 c17 -21 28 -23 112 -23 51 0 96 4 99 10 4 6 -31 10 -97 10 -69 0 -109 4 -118 13 -8 6 -6 2 4 -10z"></path><path id="p11g02nbee" d="M11792 1423 c12 -15 125 -17 147 -4 10 6 -15 11 -71 13 -68 2 -84 0 -76 -9z"></path><path id="pVKp86SU2" d="M14963 1425 c5 -13 187 -19 200 -6 6 6 -28 11 -97 13 -68 2 -105 -1 -103 -7z"></path><path id="p1GyN6MK6T" d="M14330 1420 c8 -5 42 -10 75 -10 33 0 67 5 75 10 10 7 -13 10 -75 10 -62 0 -85 -3 -75 -10z"></path><path id="puHnedvpw" d="M3380 460 c24 -8 186 -12 165 -5 -5 2 -50 5 -100 8 -49 2 -79 1 -65 -3z"></path></g></g>
</svg>